<svg width="1918" height="235" viewBox="0 0 1918 235" fill="none" xmlns="http://www.w3.org/2000/svg">
<path d="M-7 1157.31H26.5087H53.5157H88.5248H121.033H140.591H166.545H178.048H225.192H281.681H338.037H385.602H394.526H450.882H470.124H508.634H535.641H563.727H591.971H608.66H648.17H705.685H733.061H789.417H801.21L845.906 1125.34V1141.33H902.262V1029.45H958.751V1125.34H1015.24V1077.4H1071.6V1045.43H1128.08V1013.46H1184.44V1093.38H1240.93V1157.31H1297.29V1125.34H1353.77V1109.36H1410.13V1013.46H1466.62V1029.45H1522.98V1061.41H1579.46V1013.46H1635.82V1157.31H1748.67V1093.38H1805.16V1157.31H1861.51V1077.4H1918V1157.31H1861.51H1805.16H1748.67H1635.82H1297.29H1240.93H789.417H733.061H450.882H394.526H338.037H281.681H-0.498311H-7Z" fill="#13BEFD" fill-opacity="0.2"/>
<path d="M-0.498311 79.9147V63.9318H97.8247V159.83H147.119V47.9489H245.443V15.9828H294.604V111.881H343.899V31.9658H393.06V111.881H442.222V159.83H491.383V111.881H540.678V127.864H589.84V111.881H639.001V63.9318H688.163V31.9658H737.324V102.553H786.619V63.9318H835.78V15.9828H934.103V31.9658H983.398V63.9318H1032.56V111.881H1081.72V47.9489H1130.88V79.9147H1180.18V63.9318H1229.34V79.9147H1278.5V-0.000244141V95.8977H1376.82V47.9489H1426.12V31.9658H1475.28V79.9147H1524.44V95.8977H1622.9V79.9147H1672.06V159.83H1721.22V143.847H1770.38V63.9318H1819.68V95.8977H1868.84V47.9489H1918V-0.000244141H1278.5H-0.498311V79.9147Z" fill="#13BEFD" fill-opacity="0.2"/>
</svg>
